<svg xmlns="http://www.w3.org/2000/svg" width="62.914" height="39.015" viewBox="0 0 62.914 39.015"><g transform="translate(-60 -39.495)"><path d="M-608.357,342l30.238-.576s-32.1,18.546-35.184,19.406l-.027.013a5.205,5.205,0,0,1-4.321-1.387c-1.643-1.815-.955-2.6-.955-2.6s4.319-5.339,7.228-9.588S-608.357,342-608.357,342Z" transform="translate(678.749 -282.38)" fill="#61234e"/><path d="M-608.357,360.314l27.385.522,2.853.054s-32.1-18.546-35.184-19.406l-.027-.013a5.205,5.205,0,0,0-4.321,1.387c-1.643,1.815-.955,2.6-.955,2.6s4.319,5.339,7.228,9.588S-608.357,360.314-608.357,360.314Z" transform="translate(678.813 -301.932)" fill="#ebfffb"/><g transform="translate(2 -2)"><path d="M2.986,2.828a4,4,0,0,1,5.657,0l.158.158a4,4,0,0,1,0,5.657L8.643,8.8a4,4,0,0,1-5.657,0l-.158-.158a4,4,0,0,1,0-5.657Z" transform="translate(99.939 60.636)" fill="#e27575"/><path d="M2.24,2.121a3,3,0,0,1,4.243,0L6.6,2.24a3,3,0,0,1,0,4.243L6.482,6.6a3,3,0,0,1-4.243,0l-.119-.119a3,3,0,0,1,0-4.243Z" transform="translate(108.246 52.613)" fill="#9a4c82"/><path d="M1.817,1.817a2.57,2.57,0,0,1,3.634,0h0a2.57,2.57,0,0,1,0,3.634h0a2.57,2.57,0,0,1-3.634,0h0a2.57,2.57,0,0,1,0-3.634Z" transform="translate(113.645 60.921)" fill="#50c8b0"/></g></g></svg>