<svg xmlns="http://www.w3.org/2000/svg" width="31.811" height="40.245" viewBox="0 0 31.811 40.245"><g transform="translate(-8363.946 -1353.371)"><path d="M8396.086,1448.013h7.594s.648,4.808-3.754,4.808S8396.086,1448.013,8396.086,1448.013Z" transform="translate(-20.051 -59.205)" fill="#bfbfbf"/><path d="M8363.945,1387.075l31.811-.089-.053-3.018s-3.355-4.441-3.543-9.234-.125-10.769-3.861-13.321-5.477-2.8-5.477-2.8v-3.3a3.087,3.087,0,0,0-3.049-1.93,3.559,3.559,0,0,0-2.928,2.428v2.8s-4.867,1.883-6.162,3.3-2.615,2.116-3.174,10.956-3.564,11.371-3.564,11.371Z" transform="translate(0.001 0)" fill="#bfbfbf"/></g></svg>